<?xml version="1.0" standalone="yes"?>
<svg xmlns="http://www.w3.org/2000/svg" width="2472" height="1711">
<path style="fill:#ffffff; stroke:none;" d="M0 0L0 312L1 312C1 242.505 28.6048 170.554 75.1698 119C106.524 84.2867 145.442 58.5321 187 37.7531C229.718 16.3942 275.842 1 324 1L295 0L229 0L0 0z"/>
<path style="fill:#cdcd33; stroke:none;" d="M188 876L480 876C474.036 852.951 481.322 823.463 483.834 800C490.57 737.084 496.528 670.594 531.692 616C544.751 595.725 562.818 580.703 578.83 563C595.317 544.771 609.383 524.31 621.573 503C671.397 415.896 683.549 302.166 647.189 208C616.318 128.049 553.907 72.4642 478 35.7415C431.338 13.1674 381.201 -1.26404 329 0.0146484C207.732 2.98511 83.4082 77.8715 29.7562 187C13.0028 221.076 3.67718 260.213 1.08951 298C-4.52393 379.972 17.2799 464.424 64.7207 532C89.1545 566.804 124.304 592.309 144.691 630C169.929 676.659 176.609 730.093 182.166 782C184.272 801.671 186.266 821.323 188.17 841C189.29 852.578 191.184 864.671 188 876z"/>
<path style="fill:#ffffff; stroke:none;" d="M344 0L344 1C398.743 1 449.001 21.1841 497 45.7554C536.449 65.9496 573.299 94.6842 601.386 129C690.776 238.216 685.322 402.148 611.947 518C588.751 554.623 553.118 580.549 530.425 617C497.881 669.276 491.984 730.339 484.845 790C482.813 806.978 481.455 823.996 479.83 841C478.762 852.176 476.341 865.19 480 876L188 876C192.082 865.101 189.267 851.342 188.17 840C186.266 820.323 184.272 800.671 182.166 781C176.554 728.579 169.982 673.741 143.576 627C123.53 591.517 90.8732 566.6 66.8843 534C26.2593 478.792 1 405.693 1 337L0 337L0 1711L1623 1711L2085 1711L2216 1711L2253 1711C2257.82 1711 2265.31 1712.41 2269.77 1710.4C2274.81 1708.13 2273.25 1697.44 2272.83 1693C2271.18 1675.7 2269.48 1658.33 2268.09 1641C2262.13 1566.92 2252.65 1485.07 2201.71 1427C2190.13 1413.79 2176.66 1402.47 2165.27 1389C2145.45 1365.55 2129.11 1338.88 2116.31 1311C2056.48 1180.68 2077.8 1016.02 2192 922.424C2230.62 890.766 2275.27 868.129 2322 851.053C2357.41 838.113 2396.52 834.398 2434 836.039C2446.7 836.595 2459.32 839.738 2472 840L2472 0L344 0z"/>
<path style="fill:#673795; stroke:none;" d="M1687 71.6528C1673.71 75.8274 1676 93.1997 1676 104L1676 170C1676 176.807 1678.49 189.821 1674.97 195.787C1671.85 201.079 1661.36 203.476 1656 205.861C1639.8 213.076 1617.53 219.006 1607.93 235C1599.23 249.497 1601.73 269.747 1613.17 281.96C1622.41 291.819 1636.55 293.611 1649 296.884C1671.34 302.758 1693.59 309.023 1716 314.627C1725.06 316.892 1749.18 318.971 1751.52 330.001C1753.33 338.524 1740.72 343.297 1735 346.579C1720.98 354.614 1706.88 362.533 1693 370.799C1688.35 373.567 1679.85 376.42 1677.03 381.213C1672.73 388.509 1676 405.612 1676 414L1676 497L1676 704C1676 720.29 1668.42 769.645 1698 762.467C1703.88 761.039 1708.83 756.037 1709.79 750C1712.49 732.852 1710 713.371 1710 696L1710 484L1710 424C1710 417.976 1707.78 406.329 1711.6 401.329C1716.17 395.354 1726.57 391.693 1733 388C1759.78 372.609 1789.72 360.198 1785.83 324C1784.41 310.827 1775.45 299.093 1764 292.901C1755.43 288.264 1745.28 286.923 1736 284.29C1715.46 278.461 1694.71 273.058 1674 267.873C1665.31 265.699 1656.6 263.473 1648 261C1645.09 260.163 1640.48 259.566 1638.75 256.725C1635.95 252.118 1644.1 249.434 1647 248.139C1658.69 242.913 1670.33 237.568 1682 232.306C1688.86 229.213 1704.58 225.505 1708.97 219.351C1712.85 213.921 1710 198.562 1710 192L1710 117C1710 100.838 1715.4 62.735 1687 71.6528z"/>
<path style="fill:#2f3135; stroke:none;" d="M969 758.558C951.596 763.124 951.706 790.411 968 796.235C976.684 799.34 986.929 798 996 798L1048 798L1225 798L1281 798C1289.99 798 1300.31 799.255 1307.91 793.362C1319.13 784.662 1316.77 765.273 1304 759.417C1290.99 753.454 1267.24 758 1253 758L1059 758L999 758C989.643 758 978.079 756.176 969 758.558M972 816.468C953.286 820.005 949.378 848.029 968 854.867C975.396 857.582 985.223 856 993 856L1046 856L1225 856L1282 856C1289.98 856 1300.26 857.789 1306.98 852.581C1318.5 843.665 1317.58 824.515 1304 818.05C1290.39 811.569 1266.88 816 1252 816L1063 816L1003 816C993.011 816 981.832 814.609 972 816.468z"/>
<path style="fill:#cdcd33; stroke:none;" d="M2271 1711L2352 1711C2358.5 1711 2376.13 1714.12 2381.26 1709.97C2384.48 1707.36 2383.12 1698.67 2382.96 1695C2382.33 1680.7 2380.99 1666.23 2379.29 1652C2372.17 1592.51 2368.81 1532.71 2344.58 1477C2328.57 1440.22 2299.41 1417.01 2274.44 1387C2249.33 1356.83 2229.56 1321.84 2216.05 1285C2177.58 1180.07 2187.26 1056.12 2258.45 967C2287.16 931.061 2324.8 903.482 2365 881.691C2396.65 864.532 2435.53 844.903 2472 842L2472 840C2447.49 838.948 2423.76 834.955 2399 836.039C2361.92 837.663 2327.1 847.942 2293 862.011C2248.57 880.343 2205.52 906.339 2171 940.015C2061.04 1047.28 2059.81 1228.89 2139.05 1354C2162.26 1390.63 2197.88 1416.57 2220.57 1453C2252.83 1504.79 2259.07 1564.83 2266.16 1624C2268.19 1640.98 2269.54 1658 2271.17 1675C2272.28 1686.57 2275.07 1699.83 2271 1711z"/>
<path style="fill:#ffffff; stroke:none;" d="M2382 1711L2472 1711L2472 842C2453.67 842.789 2434.85 850.279 2418 857C2387.6 869.122 2358.29 883.139 2331 901.333C2297.55 923.636 2267.91 950.651 2245.19 984C2175.48 1086.34 2179.61 1226.33 2237.31 1333C2249.69 1355.9 2264.7 1377.68 2282.17 1397C2298.42 1414.98 2316.83 1430.3 2329.95 1451C2364.42 1505.42 2370.48 1570.51 2377.17 1633C2379.8 1657.6 2386.55 1686.48 2382 1711z"/>
<path style="fill:#2f3135; stroke:none;" d="M970 875.532C951.19 880.014 951.584 907.835 969 913.891C976.766 916.592 986.87 915 995 915L1048 915L1225 915L1282 915C1290.68 915 1300.75 916.532 1307.96 910.606C1319.31 901.271 1316.36 882.134 1303 876.367C1289.64 870.601 1266.48 875 1252 875L1060 875L1000 875C990.528 875 979.239 873.331 970 875.532M1021 937C1021 953.62 1023.63 969.843 1030.78 985C1065.16 1057.84 1161.49 1073.77 1218 1017C1228 1006.95 1235.6 995.016 1241.15 982C1247.19 967.839 1250 952.358 1250 937L1021 937z"/>
</svg>
